<?xml version="1.0" encoding="UTF-8" standalone="no"?>
<!DOCTYPE svg PUBLIC "-//W3C//DTD SVG 1.1//EN" "http://www.w3.org/Graphics/SVG/1.1/DTD/svg11.dtd">
<svg width="100%" height="100%" viewBox="0 0 500 500" version="1.1" xmlns="http://www.w3.org/2000/svg" xmlns:xlink="http://www.w3.org/1999/xlink" xml:space="preserve" xmlns:serif="http://www.serif.com/" style="fill-rule:evenodd;clip-rule:evenodd;stroke-linejoin:round;stroke-miterlimit:2;">
    <g id="powered-by-mysql.eps" transform="matrix(0.302267,0,0,0.302267,250,372.796)">
        <g transform="matrix(1,0,0,1,-827.083,-420.833)">
            <g transform="matrix(4.16667,0,0,4.16667,0,0)">
                <path d="M6.738,183.829L19.58,183.829L19.58,133.118L39.46,177.326C41.806,182.676 45.017,184.57 51.314,184.57C57.612,184.57 60.699,182.676 63.045,177.326L82.926,133.118L82.926,183.829L95.768,183.829L95.768,133.201C95.768,128.261 93.792,125.874 89.717,124.639C79.962,121.593 73.417,124.227 70.454,130.813L50.944,174.444L32.051,130.813C29.211,124.227 22.543,121.593 12.788,124.639C8.713,125.874 6.738,128.261 6.738,133.201L6.738,183.829Z" style="fill:rgb(0,103,143);fill-rule:nonzero;"/>
                <path d="M106.446,142.552L119.283,142.552L119.283,170.491C119.164,172.008 119.771,175.571 126.805,175.681C130.394,175.738 154.505,175.681 154.731,175.681L154.731,142.417L167.598,142.417C167.658,142.417 167.585,187.78 167.586,187.974C167.658,199.162 153.704,201.591 147.274,201.78L106.724,201.78L106.724,193.14C106.795,193.14 147.243,193.149 147.345,193.139C155.611,192.265 154.635,188.158 154.633,186.775L154.633,183.407L127.338,183.407C114.639,183.29 106.552,177.747 106.453,171.372C106.443,170.781 106.726,142.832 106.446,142.552Z" style="fill:rgb(0,103,143);fill-rule:nonzero;"/>
                <path d="M177.495,183.829L214.416,183.829C218.738,183.829 222.936,182.924 226.27,181.359C231.827,178.807 234.543,175.35 234.543,170.822L234.543,161.437C234.543,157.733 231.456,154.275 225.406,151.97C222.195,150.735 218.244,150.077 214.416,150.077L198.857,150.077C193.671,150.077 191.202,148.512 190.584,145.055C190.461,144.643 190.461,144.314 190.461,143.903L190.461,138.058C190.461,137.728 190.461,137.399 190.584,136.987C191.202,134.353 192.56,133.612 197.129,133.201C197.499,133.201 197.993,133.118 198.363,133.118L235.037,133.118L235.037,124.557L198.981,124.557C193.795,124.557 191.078,124.886 188.608,125.627C180.953,128.014 177.619,131.801 177.619,138.387L177.619,145.878C177.619,151.641 184.163,156.58 195.153,157.733C196.388,157.815 197.623,157.897 198.857,157.897L212.193,157.897C212.687,157.897 213.181,157.897 213.552,157.98C217.626,158.309 219.355,159.05 220.59,160.532C221.331,161.272 221.578,162.013 221.578,162.837L221.578,170.328C221.578,171.234 220.96,172.386 219.726,173.374C218.614,174.362 216.762,175.021 214.292,175.185C213.798,175.185 213.428,175.267 212.934,175.267L177.495,175.267L177.495,183.829Z" style="fill:rgb(229,142,25);fill-rule:nonzero;"/>
                <path d="M314.656,168.929C314.656,177.737 321.2,182.676 334.412,183.664C335.647,183.747 336.882,183.829 338.117,183.829L371.58,183.829L371.58,175.267L337.87,175.267C330.338,175.267 327.497,173.374 327.497,168.846L327.497,124.557L314.656,124.557L314.656,168.929Z" style="fill:rgb(229,142,25);fill-rule:nonzero;"/>
                <path d="M242.74,169.378L242.74,138.856C242.74,131.101 248.184,126.399 258.949,124.914C260.063,124.749 261.3,124.667 262.414,124.667L286.79,124.667C288.027,124.667 289.141,124.749 290.378,124.914C301.143,126.399 306.588,131.101 306.588,138.856L306.588,169.378C306.588,175.669 304.275,179.036 298.947,181.229L311.596,192.648L296.685,192.648L286.452,183.41L276.148,184.062L262.414,184.062C260.063,184.062 257.588,183.732 254.866,182.989C246.699,180.762 242.74,176.472 242.74,169.378ZM256.6,168.636C256.6,169.048 256.724,169.461 256.847,169.956C257.59,173.503 260.931,175.483 266.004,175.483L277.671,175.483L266.953,165.807L281.864,165.807L291.212,174.246C292.934,173.327 294.067,171.923 294.463,170.121C294.587,169.708 294.587,169.296 294.587,168.883L294.587,139.598C294.587,139.268 294.587,138.856 294.463,138.443C293.721,135.143 290.38,133.246 285.43,133.246L266.004,133.246C260.312,133.246 256.6,135.721 256.6,139.598L256.6,168.636Z" style="fill:rgb(229,142,25);fill-rule:nonzero;"/>
                <path d="M382.878,110.355C374.985,110.14 368.955,110.874 363.799,113.049C362.334,113.667 359.999,113.682 359.759,115.518C360.565,116.362 360.69,117.623 361.33,118.66C362.56,120.653 364.639,123.322 366.493,124.721C368.519,126.251 370.606,127.886 372.778,129.21C376.641,131.567 380.955,132.911 384.674,135.271C386.867,136.662 389.044,138.415 391.184,139.985C392.24,140.76 392.952,141.967 394.326,142.454L394.326,142.229C393.603,141.31 393.417,140.046 392.755,139.087C391.782,138.114 390.809,137.141 389.837,136.169C386.984,132.382 383.362,129.056 379.512,126.292C376.441,124.089 369.57,121.111 368.288,117.538C368.214,117.463 368.139,117.389 368.064,117.314C370.24,117.069 372.79,116.281 374.798,115.742C378.173,114.837 381.19,115.072 384.674,114.171C386.245,113.722 387.817,113.273 389.388,112.824L389.388,111.926C387.626,110.118 386.37,107.726 384.45,106.09C379.423,101.81 373.938,97.535 368.288,93.969C365.155,91.991 361.284,90.706 357.963,89.031C356.846,88.467 354.885,88.175 354.147,87.235C352.402,85.011 351.452,82.193 350.107,79.603C347.289,74.177 344.523,68.252 342.026,62.544C340.324,58.651 339.211,54.812 337.088,51.32C326.897,34.563 315.925,24.449 298.93,14.508C295.315,12.393 290.961,11.558 286.36,10.467C283.891,10.318 281.422,10.168 278.953,10.018C277.446,9.388 275.878,7.545 274.463,6.651C268.833,3.094 254.392,-4.642 250.222,5.529C247.59,11.949 254.157,18.214 256.507,21.466C258.156,23.749 260.266,26.308 261.445,28.874C262.219,30.561 262.353,32.251 263.016,34.036C264.649,38.433 266.068,43.216 268.179,47.28C269.246,49.335 270.421,51.502 271.77,53.341C272.597,54.468 274.014,54.965 274.239,56.708C272.852,58.647 272.774,61.658 271.994,64.115C268.487,75.176 269.809,88.925 274.912,97.112C276.479,99.625 280.167,105.014 285.238,102.948C289.673,101.14 288.682,95.541 289.951,90.602C290.239,89.482 290.063,88.659 290.625,87.909L290.625,88.133C291.971,90.826 293.318,93.52 294.665,96.214C297.656,101.029 302.963,106.062 307.459,109.457C309.792,111.219 311.627,114.263 314.642,115.294L314.642,115.069L314.418,115.069C313.833,114.158 312.92,113.781 312.173,113.049C310.416,111.326 308.463,109.185 307.01,107.213C302.92,101.659 299.305,95.582 296.012,89.255C294.44,86.235 293.073,82.902 291.747,79.828C291.236,78.642 291.241,76.85 290.176,76.236C288.725,78.488 286.585,80.31 285.462,82.97C283.666,87.222 283.434,92.407 282.769,97.785C282.375,97.927 282.55,97.828 282.319,98.01C279.194,97.255 278.094,94.037 276.933,91.276C273.994,84.293 273.448,73.05 276.035,65.013C276.704,62.934 279.727,56.384 278.504,54.463C277.92,52.546 275.992,51.438 274.912,49.974C273.578,48.163 272.244,45.779 271.321,43.688C268.916,38.243 267.792,32.132 265.261,26.629C264.05,23.999 262.003,21.336 260.322,18.997C258.461,16.406 256.378,14.499 254.935,11.365C254.422,10.251 253.725,8.469 254.486,7.325C254.728,6.552 255.07,6.23 255.833,5.978C257.135,4.974 260.761,6.312 262.118,6.876C265.717,8.371 268.721,9.794 271.77,11.814C273.235,12.784 274.714,14.661 276.484,15.181L278.504,15.181C281.664,15.907 285.204,15.407 288.156,16.303C293.374,17.889 298.05,20.356 302.297,23.038C315.235,31.207 325.812,42.835 333.048,56.708C334.213,58.94 334.716,61.073 335.741,63.442C337.81,68.219 340.416,73.135 342.475,77.807C344.529,82.468 346.531,87.172 349.434,91.051C350.96,93.091 356.856,94.184 359.534,95.316C361.413,96.11 364.489,96.937 366.268,98.01C369.666,100.058 372.958,102.499 376.145,104.744C377.738,105.866 382.635,108.326 382.878,110.355Z" style="fill:rgb(0,103,143);fill-rule:nonzero;"/>
                <path d="M282.544,24.833C280.899,24.804 279.735,25.013 278.504,25.282L278.504,25.507L278.728,25.507C279.513,27.12 280.9,28.158 281.871,29.547C282.619,31.118 283.367,32.69 284.115,34.261C284.19,34.186 284.265,34.111 284.34,34.036C285.73,33.057 286.367,31.49 286.36,29.098C285.802,28.512 285.72,27.777 285.238,27.078C284.595,26.146 283.354,25.617 282.544,24.833Z" style="fill:rgb(0,103,143);"/>
                <path d="M377.609,175.023C377.609,180.677 382.076,184.487 387.073,184.487C392.07,184.487 396.537,180.677 396.537,175.023C396.537,169.37 392.07,165.56 387.073,165.56C382.076,165.56 377.609,169.37 377.609,175.023ZM394.417,175.023C394.417,179.313 391.136,182.519 387.073,182.519C382.959,182.519 379.729,179.313 379.729,175.023C379.729,170.733 382.959,167.527 387.073,167.527C391.136,167.527 394.417,170.733 394.417,175.023ZM389.622,180.424L391.742,180.424L388.638,175.68C390.303,175.503 391.565,174.695 391.565,172.727C391.565,170.531 390.177,169.623 387.502,169.623L383.287,169.623L383.287,180.424L385.105,180.424L385.105,175.755L386.796,175.755L389.622,180.424ZM385.105,174.241L385.105,171.137L387.199,171.137C388.284,171.137 389.597,171.339 389.597,172.601C389.597,174.114 388.411,174.241 387.048,174.241L385.105,174.241Z" style="fill:rgb(229,142,25);"/>
            </g>
        </g>
    </g>
    <g transform="matrix(18.5,0,0,18.5,-70,-52.5)">
        <path d="M12,3C7.58,3 4,4.79 4,7C4,9.21 7.58,11 12,11C16.42,11 20,9.21 20,7C20,4.79 16.42,3 12,3M4,9L4,12C4,14.21 7.58,16 12,16C16.42,16 20,14.21 20,12L20,9C20,11.21 16.42,13 12,13C7.58,13 4,11.21 4,9M4,14L4,17C4,19.21 7.58,21 12,21C16.42,21 20,19.21 20,17L20,14C20,16.21 16.42,18 12,18C7.58,18 4,16.21 4,14Z" style="fill:rgb(0,103,143);fill-rule:nonzero;"/>
    </g>
</svg>
